<?xml version="1.0" encoding="utf-8"?>
<!-- Generator: Adobe Illustrator 23.0.3, SVG Export Plug-In . SVG Version: 6.00 Build 0)  -->
<svg version="1.1" id="Layer_1" xmlns="http://www.w3.org/2000/svg" xmlns:xlink="http://www.w3.org/1999/xlink" x="0px" y="0px"
	 viewBox="0 0 235.95 125.5" style="enable-background:new 0 0 235.95 125.5;" xml:space="preserve">
<style type="text/css">
	.st0{fill:#FFFFFF;}
</style>
<g>
	<path class="st0" d="M109.45,93.33c0.11,6.66-4.03,13.4-13.43,13.4c-3.3,0-7.25,0-10.55,0V80.39c3.3,0,7.25,0,10.55,0
		C105.23,80.39,109.34,86.82,109.45,93.33z M90.5,101.95h5.52c6.1,0,8.52-4.36,8.4-8.65c-0.11-4.1-2.57-8.2-8.4-8.2H90.5V101.95z"/>
	<path class="st0" d="M120.92,106.73V80.39h5.03v26.34H120.92z"/>
	<path class="st0" d="M149.69,91.26l7.14-10.87h6.1v0.23l-10.7,15.24v10.87h-5.06V95.86l-10.32-15.24v-0.23h6.02L149.69,91.26z"/>
	<path class="st0" d="M187.63,80.4h-5.51l-12.05,26.34h5.37l6.62-14.47l0.06-0.16l2.75-6.19l2.75,6.19h0.02l6.68,14.63h5.37
		L187.63,80.4z"/>
	<path class="st0" d="M233.44,106.73h-6.02l-7.83-8.81h-4.87v8.81h-5.06V80.35c4.26,0,8.52,0.04,12.78,0.04
		c6.33,0.04,9.67,4.18,9.67,8.73c0,3.61-1.69,7.26-6.79,8.28l8.13,8.99V106.73z M214.71,85.02v8.43h7.71c3.22,0,4.6-2.11,4.6-4.21
		c0-2.11-1.42-4.21-4.6-4.21H214.71z"/>
</g>
<g>
	<path class="st0" d="M86.98,118.6v3.03h-0.69v-8.77c1.3,0,2.62,0,3.92,0c3.89,0,3.89,5.74,0,5.74H86.98z M86.98,113.48v4.5h3.23
		c2.98,0,2.98-4.5,0-4.5H86.98z"/>
	<path class="st0" d="M130.79,117.26c-0.01,2.31-1.51,4.52-4.51,4.52s-4.51-2.23-4.51-4.55c0-2.36,1.5-4.51,4.51-4.51
		C129.29,112.72,130.8,114.89,130.79,117.26z M122.44,117.24c0.01,1.98,1.29,3.91,3.83,3.91c2.56,0,3.85-1.93,3.85-3.91
		c0-2.03-1.28-3.9-3.85-3.9C123.71,113.35,122.43,115.18,122.44,117.24z"/>
	<path class="st0" d="M160.61,112.86v8.13h5.04v0.64h-5.73v-8.77H160.61z"/>
	<path class="st0" d="M201.57,121.63l-0.98-2.16h-5.34l-0.97,2.16h-0.74l4.01-8.77h0.75l4.01,8.77H201.57z M200.31,118.85l-2.4-5.34
		l-2.4,5.34H200.31z"/>
	<path class="st0" d="M232.03,113.47h-3.23v-0.6h7.16v0.6h-3.23v8.16h-0.69V113.47z"/>
</g>
<g>
	<path class="st0" d="M66.29,9.34c-6.25,6.25-9.46,14.74-9.02,23.46l-0.27,23.78l-0.05,0L56.79,69.3l0.09,0l-0.23,22.71
		c0.27,5.7-1.74,11.01-5.67,14.94c-8.11,8.12-21.96,7.75-30.88-0.82c-8.91-8.56-9.58-22.14-1.47-30.26
		c3.93-3.93,9.29-6.01,15.52-5.85l9.74-0.3l0.15-12.7l-10.85,0.34c-9.29-0.24-17.85,3.06-24.12,9.34
		c-12.95,12.92-11.89,34.52,2.32,48.18c14.21,13.65,36.26,14.24,49.18,1.3c6.25-6.25,9.44-14.72,9.04-23.44l0.25-23.8l0.05,0
		l0.13-12.73l-0.05,0l0.26-22.69c-0.29-5.73,1.72-11.03,5.64-14.96c8.11-8.12,21.96-7.75,30.88,0.82
		c8.91,8.56,9.58,22.14,1.47,30.26c-3.93,3.93-9.29,6.01-15.5,5.88l-9.74,0.3l-0.13,12.73l10.85-0.34
		c9.29,0.24,17.83-3.09,24.07-9.34c12.95-12.96,11.89-34.57-2.32-48.22C101.26-3.02,79.22-3.61,66.29,9.34L66.29,9.34z"/>
</g>
</svg>
